{
	"asset":{
		"version":"2.0",
		"generator":"Created using the official Cinema 4D glTF Exporter 1.000x284978"
	},
	"scenes":[{
		"nodes":[0]
	}],
	"meshes":[{
		"name":"圆柱体",
		"primitives":[{
			"attributes":{
				"POSITION":1,
				"NORMAL":2,
				"TEXCOORD_0":3
			},
			"indices":0,
			"material":0
		}]
	}],
	"nodes":[{
		"translation":[0.0,
		0.0,
		0.0],
		"name":"圆柱体",
		"rotation":[0.0,
		0.0,
		0.0,
		-1.0],
		"scale":[1.0,
		1.0,
		1.0],
		"mesh":0
	}],
	"accessors":[{
		"bufferView":0,
		"type":"SCALAR",
		"componentType":5123,
		"count":41760,
		"byteOffset":0,
		"min":[0],
		"max":[7206]
	},
	{
		"bufferView":1,
		"type":"VEC3",
		"componentType":5126,
		"count":7207,
		"byteOffset":0,
		"min":[-277.14227294921877,
		-100.0,
		-50.0],
		"max":[49.81831359863281,
		63.6619758605957,
		50.0]
	},
	{
		"bufferView":1,
		"type":"VEC3",
		"componentType":5126,
		"count":7207,
		"byteOffset":12,
		"min":[-0.9999991655349731,
		-1.0,
		-0.9999999403953552],
		"max":[0.9999991655349731,
		1.0,
		0.9999999403953552]
	},
	{
		"bufferView":1,
		"type":"VEC2",
		"componentType":5126,
		"count":7207,
		"byteOffset":24,
		"min":[0.0,
		0.0],
		"max":[1.0,
		1.0]
	}],
	"materials":[{
		"pbrMetallicRoughness":{
			"baseColorFactor":[0.01600000075995919,
			0.7215999960899352,
			0.800000011920929,
			1.0],
			"metallicFactor":1.0,
			"roughnessFactor":0.5
		},
		"emissiveFactor":[0.0,
		0.0,
		0.0],
		"alphaMode":"OPAQUE",
		"doubleSided":false,
		"name":"??"
	}],
	"bufferViews":[{
		"buffer":0,
		"byteOffset":0,
		"byteLength":83520,
		"target":34963
	},
	{
		"buffer":0,
		"byteOffset":83520,
		"byteLength":230624,
		"target":34962,
		"byteStride":32
	}],
	"buffers":[{
		"uri":"data:application/octet-stream;base64,",
		"byteLength":314144
	}]
}